<svg width="302" height="253" viewBox="0 0 302 253" fill="none" xmlns="http://www.w3.org/2000/svg">
<path d="M190.447 38.9871C190.501 38.8376 191.777 36.661 193.425 34.2964C201.091 23.2837 212.459 12.6701 225.791 13.069L225.8 12.9874C219.773 12.3281 213.867 13.9286 208.683 16.7815C200.13 21.3782 191.797 30.1387 187.238 36.872L190.447 38.9871" fill="#F7CC7F"/>
<path d="M222.832 19.1631L223.734 12.9689L219.129 8.71728C218.603 8.23358 218.865 7.36015 219.569 7.23845L225.755 6.18018L228.388 0.498994C228.687 -0.147994 229.6 -0.171101 229.934 0.460483L232.856 5.99839L239.088 6.73934C239.797 6.82407 240.101 7.6821 239.602 8.19353L235.222 12.6762L236.441 18.8149C236.58 19.5143 235.856 20.0673 235.215 19.7531L229.585 16.9833L224.107 20.0365C223.482 20.3846 222.73 19.8686 222.832 19.1631" fill="#F7CC7F"/>
<path d="M101.526 7.82693L100.706 10.86L103.166 12.9227L102.004 16.2593L105.304 17.6504L104.157 21.4799L107.037 23.1343L106.538 26.9993L105.071 26.8114L105.444 23.9215L102.405 22.1762L103.507 18.4945L100.153 17.0804L101.434 13.3987L99.032 11.3854L99.7925 8.57248L97.9377 7.5789L98.6375 6.28032L101.526 7.82693" fill="#9BC1F9"/>
<path d="M32.0709 196.37C35.6272 200.326 35.2943 206.406 31.3272 209.951C27.3602 213.495 21.2613 213.162 17.705 209.207C14.1488 205.252 14.4818 199.172 18.4488 195.626C22.4157 192.081 28.5147 192.414 32.0709 196.37" fill="#F7CC7F"/>
<path d="M22.0676 207.355C23.969 209.47 27.2298 209.647 29.3509 207.752C31.4718 205.858 31.6498 202.606 29.7485 200.492L22.0676 207.355Z" fill="#EFEFEF"/>
<path d="M276.108 250.817H44.9508C44.3463 250.817 43.8562 251.305 43.8562 251.908C43.8562 252.512 44.3463 253 44.9508 253H276.108C276.712 253 277.204 252.512 277.204 251.908C277.204 251.305 276.712 250.817 276.108 250.817Z" fill="#184655"/>
<path d="M21.5729 172.282L19.0525 170.857C18.3557 171.965 17.508 172.957 16.6849 173.705C15.9978 174.329 14.9428 174.314 14.2733 173.671L14.1927 173.593C13.4551 172.884 13.4721 171.697 14.2386 171.019C15.0197 170.329 15.7777 169.465 16.3661 168.429C17.2237 166.923 17.2268 165.561 16.1658 164.96C15.1577 164.39 14.0394 164.877 12.2629 166.459C9.69828 168.75 7.27348 169.931 4.70005 168.476C2.36548 167.155 1.4677 164.481 2.52028 161.336L0 159.911L1.4745 157.318L3.80892 158.638C4.39925 157.7 4.97799 156.982 5.53093 156.422C6.20669 155.736 7.31287 155.727 8.00702 156.394C8.72496 157.084 8.7282 158.232 8.01119 158.922C7.4737 159.439 6.89002 160.125 6.35902 161.058C5.38122 162.777 5.80809 163.754 6.5509 164.173C7.42643 164.669 8.51006 164.058 10.6378 162.289C13.5421 159.772 15.7234 159.327 18.111 160.676C20.4722 162.012 21.5408 164.819 20.3411 168.16L23.0473 169.691L21.5729 172.282" fill="#FAE0B2"/>
<path d="M269.443 66.1637L267.775 70.3106L260.787 68.3711L257.598 74.1339L252.131 73.5347L251.826 76.2936L259.138 77.0962L262.16 71.6338L269.431 73.6518L271.941 67.413L269.443 66.1637" fill="#466EB6"/>
<path d="M257.357 213.028L258.82 209.407C257.209 208.674 255.724 207.719 254.571 206.754C253.609 205.947 253.441 204.536 254.185 203.525L254.275 203.404C255.095 202.292 256.694 202.102 257.743 203.005C258.811 203.924 260.105 204.782 261.602 205.383C263.782 206.26 265.612 206.019 266.228 204.494C266.814 203.046 265.959 201.64 263.515 199.55C259.979 196.533 257.958 193.505 259.453 189.808C260.808 186.451 264.243 184.774 268.657 185.618L270.121 181.995L273.869 183.501L272.513 186.856C273.879 187.477 274.946 188.121 275.799 188.76C276.842 189.54 277.052 191.015 276.279 192.063C275.481 193.144 273.94 193.355 272.884 192.52C272.091 191.895 271.065 191.237 269.717 190.695C267.231 189.697 265.996 190.442 265.565 191.51C265.057 192.767 266.07 194.106 268.828 196.632C272.731 200.061 273.719 202.895 272.332 206.328C270.962 209.721 267.381 211.65 262.676 210.645L261.103 214.535L257.357 213.028Z" fill="#96D9C9"/>
<path d="M53.4086 87.75C53.7793 88.2383 53.7513 88.9207 53.3414 89.3767C52.5374 90.2717 51.2242 91.3546 49.5759 92.1541C47.1647 93.3264 44.3985 93.6776 41.7906 92.7811C40.1608 92.2203 38.6096 91.0819 37.4444 89.5292L36.0196 90.2208C35.5354 90.4565 34.9516 90.2563 34.7157 89.7726L34.6978 89.7371C34.4618 89.2534 34.6631 88.6711 35.1473 88.4355L36.3164 87.8686C36.084 87.485 35.923 87.2478 35.8161 87.029C35.6382 86.6655 35.4611 86.211 35.3027 85.7012L34.0972 86.2865C33.613 86.5222 33.0294 86.322 32.7934 85.8383C32.5575 85.3561 32.7587 84.7738 33.2429 84.5381L34.7044 83.8295C34.2874 81.9579 34.3614 80.0739 34.9233 78.4487C35.8789 75.6867 37.9724 73.5871 40.493 72.3624C41.9626 71.6492 43.1996 71.3627 44.2125 71.2564C44.9167 71.1824 45.553 71.6769 45.6528 72.3763L45.6559 72.3979C45.7593 73.1219 45.2471 73.7858 44.5198 73.8829C43.6926 73.9953 42.7273 74.2526 41.6313 74.7855C40.024 75.565 38.6656 76.8559 37.9922 78.7168C37.6174 79.7997 37.5134 81.0675 37.8825 82.2844L46.1026 78.2916C46.5867 78.0575 47.1706 78.2577 47.4065 78.7399C47.6424 79.2236 47.441 79.8043 46.9568 80.04L38.3715 84.21C38.5308 84.629 38.6901 85.048 38.8146 85.3022C38.9748 85.6303 39.135 85.9584 39.385 86.3774L47.9886 82.1982C48.4829 81.9579 49.0789 82.1628 49.3198 82.6557C49.5606 83.1486 49.3551 83.7432 48.8608 83.9836L40.6226 87.9857C41.3945 88.9176 42.3508 89.58 43.3289 89.9158C45.2669 90.552 46.9775 90.3518 48.8041 89.4645C49.9175 88.9238 50.8216 88.2398 51.4968 87.5975C52.0523 87.0691 52.9451 87.1399 53.4086 87.75" fill="#86B1F2"/>
<path d="M26.8335 113.646L22.5798 114.078L21.1291 107.329L14.8315 107.193L12.9178 102.321L10.444 103.287L13.0034 109.805L18.9712 109.932L20.4805 116.952L26.8816 116.305L26.8335 113.646" fill="#50BFA5"/>
<path d="M229.61 64.2982L232.281 65.1778C232.281 65.1778 236.516 63.8083 236.933 62.9488C237.35 62.0877 237.467 60.0004 238.07 59.9434C238.672 59.8864 239.836 60.082 240.114 61.51C240.315 62.5483 238.791 65.546 239.029 65.8648C239.179 66.0651 240.699 66.6135 241.816 66.9955C242.552 67.2482 243.082 67.8921 243.195 68.67V68.6731C243.27 69.1984 242.972 69.7098 242.479 69.9008L241.71 70.1966L241.956 70.9868C242.138 71.5768 241.815 72.2099 241.231 72.404L240.636 72.6027L240.826 73.0849C241.072 73.7057 240.727 74.4097 240.088 74.5945L239.569 74.7455L239.59 74.8842C239.678 75.4603 239.317 76.0133 238.756 76.1596L238.24 76.2952L231.127 73.9553C230.461 73.735 229.848 73.3807 229.324 72.9108L226.962 71.6677C226.708 71.5337 226.591 71.2318 226.687 70.956L228.877 64.6679C228.982 64.3644 229.308 64.1996 229.61 64.2982" fill="#FAE0B2"/>
<path d="M66.8149 72.7476C66.7561 72.5812 65.3308 70.1504 63.4907 67.5116C54.9321 55.2173 42.2411 43.3681 27.3583 43.8118L27.3476 43.7224C34.0765 42.9861 40.6694 44.773 46.4571 47.9571C56.0051 53.0899 65.3083 62.8687 70.398 70.3861L66.8149 72.7476" fill="#F7CC7F"/>
<path d="M30.6603 50.6159L29.6536 43.7024L34.7954 38.9547C35.3809 38.414 35.0905 37.4389 34.3039 37.3049L27.3978 36.1218L24.4592 29.7798C24.1244 29.0574 23.1041 29.0312 22.7327 29.7351L19.4713 35.92L12.5133 36.7457C11.7209 36.8397 11.3806 37.7994 11.9377 38.3694L16.8281 43.3727L15.4666 50.2262C15.3114 51.0072 16.1214 51.6265 16.8372 51.2737L23.1211 48.1835L29.2376 51.5926C29.9342 51.9808 30.7749 51.4031 30.6603 50.6159" fill="#F7CC7F"/>
<path d="M263.444 170.563L263.926 168.924C266.478 168.448 268.675 166.732 269.4 164.275C269.632 163.488 269.791 162.822 269.908 161.932L266.489 160.95L267.098 158.885L270.185 159.772C270.308 158.74 270.486 157.404 270.861 156.127C272 152.259 275.433 150.506 279.118 151.565C280.168 151.866 280.979 152.256 281.583 152.658C282.13 153.022 282.274 153.757 281.914 154.303C281.551 154.852 280.814 155.009 280.249 154.665C279.779 154.38 279.183 154.106 278.432 153.891C275.842 153.148 274.259 154.613 273.574 156.941C273.159 158.35 273.049 159.456 272.939 160.562L277.721 161.935L277.112 163.999L272.598 162.703C272.331 163.977 272.031 165.242 271.384 166.337C270.603 167.642 269.46 168.593 268.051 169.22L268.033 169.284L276.757 171.789C277.401 171.974 277.774 172.641 277.585 173.277L277.56 173.363C277.372 174.001 276.698 174.368 276.052 174.181L263.444 170.563" fill="#F7CC7F"/>
<path d="M1.23983 74.1309L2.86357 71.395L1.52472 68.5113C1.37223 68.1832 1.66361 67.8227 2.01802 67.9013L5.12801 68.596L7.46521 66.4363C7.73141 66.1898 8.16508 66.3546 8.19907 66.7151L8.49755 69.8792L11.2808 71.4274C11.5978 71.6045 11.5743 72.0666 11.2412 72.2099L8.31556 73.47L7.6985 76.5894C7.62836 76.9437 7.18002 77.0639 6.94024 76.7928L4.83354 74.4081L1.66901 74.7871C1.30857 74.8287 1.05505 74.442 1.23983 74.1309" fill="#466EB6"/>
<path d="M301.104 118.06L297.209 117.746L296.678 121.338L292.826 121.198L291.893 124.57L288.995 124.935L289.18 126.398L293.056 125.91L293.94 122.715L297.948 122.86L298.47 119.328L302 119.611L301.104 118.06" fill="#F48C7F"/>
<path d="M92.6055 30.8551L92.3677 26.9654L88.7255 26.9469L88.3216 23.1251L84.8433 22.6799L84.0721 19.8701L82.6453 20.2583L83.6766 24.017L86.973 24.4406L87.3933 28.415L90.9754 28.4335L91.1908 31.958L92.6055 30.8551" fill="#F48C7F"/>
<path d="M8.1776 145.649L11.1217 146.769L13.4281 144.539L16.6392 146.027L18.3607 142.895L22.0666 144.42L24.0084 141.73L27.8144 142.616L27.4785 144.052L24.6326 143.389L22.5835 146.227L19.0212 144.762L17.2709 147.948L13.7275 146.304L11.4752 148.482L8.7463 147.444L7.56734 149.183L6.34174 148.357L8.1776 145.649" fill="#F7CC7F"/>
<path d="M185.79 21.959L185.6 24.3251L181.747 24.4391L181.041 27.8651L178.172 28.4196L178.455 29.8676L182.291 29.1252L182.962 25.8794L186.968 25.7608L187.255 22.1993L185.79 21.959" fill="#50BFA5"/>
<path d="M263.937 22.3472C268.382 26.5957 268.528 33.634 264.266 38.0644C260.003 42.4962 252.946 42.6426 248.503 38.3925C244.058 34.1424 243.911 27.1056 248.174 22.6737C252.436 18.2434 259.494 18.0971 263.937 22.3472" fill="#FFF3D9"/>
<path d="M263.747 31.6407L259.002 33.0949L257.515 37.8163C257.394 38.1968 256.887 38.2754 256.657 37.9488L253.804 33.899L248.841 33.9467C248.44 33.9498 248.208 33.4938 248.449 33.175L251.431 29.2176L249.852 24.5254C249.723 24.1464 250.088 23.786 250.467 23.9169L255.162 25.5205L259.149 22.5736C259.471 22.3349 259.928 22.569 259.922 22.968L259.841 27.9159L263.885 30.7873C264.212 31.0184 264.13 31.5236 263.747 31.6407" fill="#FED333"/>
<path d="M295.528 79.6457L298.144 79.4885C298.426 79.4716 298.575 79.1065 298.394 78.8723L296.729 76.6988L297.447 73.9321C297.524 73.6333 297.255 73.3714 296.993 73.4916L294.558 74.5914L292.387 73.0387C292.152 72.8692 291.837 73.0741 291.856 73.3822L292.016 76.2351L289.957 78.042C289.735 78.2377 289.809 78.6243 290.084 78.6952L292.617 79.3591L293.515 82.0287C293.612 82.3168 293.972 82.3522 294.125 82.0888L295.528 79.6457" fill="#F47458"/>
<path d="M96.4043 127.82C96.4043 127.82 101.091 118.828 101.818 115.527C102.545 112.228 104.988 95.617 104.85 94.5341C104.591 92.4915 101.9 91.1682 102.392 90.2593C102.883 89.3489 105.432 89.067 106.3 89.1456C107.169 89.2226 108.913 89.7279 109.661 90.341C110.408 90.9556 108.821 110.875 108.347 115.164C107.873 119.452 102.05 132.66 102.05 132.66L96.4043 127.82Z" fill="#F7A491"/>
<path d="M110.5 89.9713C110.396 90.0375 110.002 90.1531 109.91 90.2362L109.19 90.4627C109.19 90.4627 111.041 90.4149 112.135 91.5857C112.135 91.5857 111.616 90.6552 110.5 89.9713" fill="#F47257"/>
<path d="M199.095 93.5806C199.822 93.0291 200.191 91.6442 200.347 90.7492L200.715 89.5723C200.435 89.4429 194.924 88.4016 193.254 88.2814C193.067 88.8021 192.965 89.2442 193.004 89.5307C193.189 90.9064 194.527 99.8378 194.527 99.8378L199.299 100.152C199.299 100.152 198.502 94.8545 199.095 93.5806" fill="#F7A491"/>
<path d="M199.21 89.8311C199.21 89.8311 198.224 90.2763 197.13 91.5919C197.13 91.5919 194.51 89.7402 194.629 89.198C194.788 88.4786 197.487 89.9513 197.487 89.9513L199.21 89.8311Z" fill="#F47458"/>
<path d="M222.487 220.449C222.487 220.449 228.91 225.064 229.92 226.443C231.377 228.425 219.041 232.136 220.388 229.813C220.697 229.279 221.585 227.481 221.624 227.304C221.831 226.359 219.214 223.811 219.214 223.811L222.487 220.449Z" fill="#F7A491"/>
<path d="M217.051 233.695L221.412 227.55C221.412 227.55 224.134 226.92 226.929 223.785C226.929 223.785 229.44 224.74 230.985 226.812C230.985 226.812 228.066 229.95 223.569 233.479C223.569 233.479 220.902 235.835 217.218 237.076C213.531 238.318 217.051 233.695 217.051 233.695Z" fill="#F7CC7F"/>
<path d="M274.923 106.554C274.923 106.554 273.264 109.285 273.078 109.119C272.936 108.991 273.926 107.552 274.633 105.809C274.813 105.362 274.991 104.918 275.15 104.51C275.569 103.438 275.051 102.883 274.439 103.937C274.223 104.31 273.879 104.937 273.695 105.417C273.495 105.937 273.149 106.352 272.918 106.764C272.457 107.582 272.131 108.184 272.108 108.147C272.08 108.099 271.878 108.198 272.056 107.716C272.27 107.137 272.989 106.004 273.239 105.129C273.381 104.633 273.74 103.614 273.74 103.614C273.74 103.614 274.002 101.976 273.914 101.93C273.437 101.682 272.95 102.755 272.842 103.453C272.551 103.866 272.204 104.949 272.204 104.949C272.204 104.949 271.024 106.989 270.742 106.828C270.623 106.761 271.201 105.425 271.57 104.028C271.913 102.731 272.052 101.369 271.815 101.266C271.408 101.092 270.878 102.494 270.878 102.494C270.878 102.494 270.559 103.495 270.429 103.82C270.274 104.2 269.73 105.306 269.73 105.306C269.73 105.306 267.606 109.047 267.353 108.871C267.099 108.697 266.69 108.001 266.739 107.723C266.789 107.448 267.14 106.984 267.191 106.707C267.24 106.429 267.075 106.029 266.747 105.947C266.421 105.866 265.68 107.12 265.68 107.12C265.68 107.12 265.085 108.144 265.069 108.962C265.015 111.795 265.479 111.682 265.462 112.046C265.443 112.476 262.152 117.206 262.152 117.206C262.152 117.206 262.131 117.231 262.091 117.279L265.995 120.112C267.297 118 268.309 116.345 268.606 115.828C268.606 115.828 270.565 114.156 271.762 113.067C272.959 111.978 273.631 110.41 273.925 110.051C273.967 109.997 274.874 108.746 275.593 106.912C276.215 105.33 274.923 106.554 274.923 106.554" fill="#F8A492"/>
<path d="M232.31 173.003L231.294 178.013L205.759 201.172L224.037 219.615L219.101 224.645C219.101 224.645 192.104 204.88 191.133 202.288C189.634 198.3 210.483 171.886 210.483 171.886L232.31 173.003Z" fill="#B75742"/>
<path d="M251.112 234.299C251.112 234.299 257.535 238.916 258.545 240.293C260.002 242.275 247.666 245.986 249.013 243.663C249.322 243.129 250.21 241.331 250.249 241.155C250.456 240.21 247.839 237.662 247.839 237.662L251.112 234.299" fill="#F7A491"/>
<path d="M245.67 247.568L250.031 241.424C250.031 241.424 252.928 240.904 255.723 237.77C255.723 237.77 258.06 238.614 259.605 240.686C259.605 240.686 256.685 243.824 252.188 247.353C252.188 247.353 249.523 249.708 245.836 250.95C242.152 252.191 245.67 247.568 245.67 247.568" fill="#F7CC7F"/>
<path d="M231.436 175.324L231.834 208.239L252.117 233.61L247.343 238.902C247.343 238.902 222.226 218.078 219.475 212.103C217.768 208.398 211.551 173.343 211.551 173.343L231.436 175.324" fill="#F47458"/>
<path d="M210.839 172.73C212.915 168.057 212.675 134.552 220.757 126.703C223.601 127.182 225.63 127.452 226.104 127.575C226.526 131.027 226.991 143.693 227.275 155.3C227.465 163.033 227.269 171.144 228.224 175.418C228.817 178.068 208.941 177 210.839 172.73Z" fill="#FAE0B2"/>
<path d="M176.612 145.923C171.887 146.195 169.899 146.942 168.445 146.666C166.993 146.39 163.118 145.01 163.188 143.562C168.377 142.527 177.44 144.13 177.44 144.13C176.817 147.15 176.612 145.923 176.612 145.923Z" fill="#F7A491"/>
<path d="M217.31 127.771C217.31 127.771 215.214 138.041 212.771 139.806C210.329 141.572 197.946 147.78 197.184 147.735C193.438 147.519 175.526 146.791 175.526 146.791L176.079 141.063L196.267 139.427C196.267 139.427 210.883 129.87 212.853 128.365C214.237 127.498 217.31 127.771 217.31 127.771Z" fill="#466EB6"/>
<path d="M210.026 174.97C208.211 174.97 207.54 174.721 206.33 174.357C206.33 174.357 205.536 160.91 209.405 140.971C210.863 133.453 210.903 128.891 213.884 127.734C216.572 126.691 219.861 126.552 220.757 126.703C212.839 149.04 212.813 166.233 211.691 171.219C211.129 173.719 210.639 174.986 210.026 174.97" fill="#466EB6"/>
<path d="M221.593 123.33L220.763 126.703C220.763 126.703 220.573 129.643 221.942 129.906C223.592 130.225 226.042 127.763 226.042 127.763L227.462 118.246L221.593 123.33Z" fill="#F7A491"/>
<path d="M221.593 123.33L220.763 126.703C220.763 126.703 220.573 129.643 221.942 129.906C223.592 130.225 226.042 127.763 226.042 127.763L227.462 118.246L221.593 123.33Z" fill="#F7A491"/>
<path d="M227.448 118.289L221.593 123.33L220.973 125.85C223.211 125.314 226.402 122.858 227.448 118.289" fill="#F47458"/>
<path d="M221.573 109.533C220.158 109.529 218.883 110.509 218.386 111.918C217.972 113.086 217.443 114.817 217.108 116.804C216.488 120.463 218.579 123.813 220.397 124.081C222.216 124.348 226.548 123.146 227.507 117.963C227.917 115.74 228.457 112.825 226.625 111.294C225.199 110.103 223.201 109.538 221.573 109.533" fill="#F7A491"/>
<path d="M226.915 121.914C226.915 121.914 233.327 116.217 233.606 111.766C233.886 107.315 229.764 104.931 226.239 104.807C224.647 104.75 223.569 104.821 221.925 105.029C218.393 105.473 216.104 107.033 216.91 109.919C217.992 113.793 225.321 110.524 226.819 111.727C228.057 112.719 226.052 115.105 227.254 116.016C228.383 116.871 227.807 116.581 227.433 118.208C227.059 119.836 226.915 121.914 226.915 121.914" fill="#13375B"/>
<path d="M229.387 116.752C229.228 117.819 228.575 118.607 227.927 118.511C227.28 118.416 226.883 117.474 227.042 116.407C227.201 115.341 227.855 114.554 228.502 114.649C229.149 114.745 229.546 115.686 229.387 116.752Z" fill="#F7A491"/>
<path d="M200.192 88.035C199.618 87.0322 198.759 88.0627 199.315 89.3675C199.343 89.4322 199.316 89.5307 199.318 89.5215C199.174 89.8619 197.841 90.9233 197.841 90.9233C197.841 90.9233 198.91 93.904 199.509 93.12C200.11 92.3359 200.566 89.7972 200.566 89.7972L200.192 88.035Z" fill="#F7A491"/>
<path d="M267.776 118.519L263.41 114.21C263.41 114.21 255.114 126.081 250.905 128.141C246.816 130.142 233.197 129.413 232.717 129.305C231.085 128.934 226.064 127.564 226.064 127.564C226.064 127.564 221.856 163.586 227.339 176.11C229.128 180.195 240.253 177.487 240.253 177.487C240.253 177.487 236.82 162.488 236.636 160.525C236.462 158.648 235.507 143.771 235.66 143.619C236.061 143.22 251.248 139.919 255.412 136.766C259.807 133.435 267.776 118.519 267.776 118.519" fill="#466EB6"/>
<path d="M55.7797 151.207C63.268 158.988 69.8444 152.093 69.5189 152.208C69.7755 152.101 71.4181 152.108 72.4888 152.067C76.9491 151.893 81.0109 148.705 82.7839 144.48C89.4591 143.61 93.8236 137.459 91.8694 132.135C94.8195 128.473 93.91 122.626 91.1192 118.882C90.4692 112.745 82.4292 111.707 76.8944 113.856C74.0886 114.947 71.6999 117.302 70.4701 120.158C65.1356 120.03 60.5809 123.943 59.3927 129.39C51.0957 131.697 48.138 143.266 55.7797 151.207Z" fill="#FF3B3B"/>
<path d="M103.887 226.606C103.107 230.808 101.778 234.505 101.597 234.941C101.509 235.149 100.673 235.913 100.577 236.127C101.026 241.251 104.301 244.295 107.375 246.465C106.708 243.88 105.224 240.917 105.415 240.342C105.721 239.427 106.909 235.252 109.44 230.001C106.881 229.713 105.97 228.163 103.887 226.606Z" fill="#F7A491"/>
<path d="M94.5252 165.641L76.7586 177.737C76.7586 177.737 85.4111 183.339 88.3781 186.158C91.3451 188.977 107.219 201.765 107.478 202.41C107.669 202.889 106.004 208.952 102.187 228.367C103.875 230.087 107.593 231.774 109.794 232.33C114.41 221.972 119.625 200.423 119.039 198.052C118.131 194.374 94.5252 165.641 94.5252 165.641" fill="#355389"/>
<path d="M49.5388 189.985C50.0609 190.492 53.5287 197.226 54.8476 200.831C56.7788 199.619 57.9468 198.174 60.1044 197.357C58.4022 194.902 55.0824 188.991 54.8096 187.585C54.1623 184.247 53.4025 183.755 53.4025 183.755C53.4025 183.755 42.1818 187.54 41.4343 188.602C40.6869 189.661 47.4413 187.945 49.5388 189.985" fill="#F7A491"/>
<path d="M54.9405 188.326C55.811 188.327 54.8652 184.405 54.6656 183.501C54.4411 182.484 53.8505 182.179 53.7036 182.144C53.3056 182.045 40.8354 186.252 38.7285 187.764C38.5862 187.865 38.3302 188.189 38.2908 188.261C37.1368 190.408 47.4172 190.817 48.8966 189.879C50.2124 189.044 51.0246 188.315 54.9405 188.326" fill="#3C8F7C"/>
<path d="M97.7532 169.425C97.7532 169.425 82.7017 163.515 82.5061 164.144C80.9477 169.149 76.0984 167.534 73.2199 176.349C72.0143 180.041 71.0653 189.786 70.2523 197.014C69.6937 201.98 68.913 205.961 68.913 205.961C68.913 205.961 65.4287 200.822 58.8697 193.454C58.3614 192.884 53.0658 197.904 53.0658 197.904C63.5117 218.557 71.1317 221.478 72.7968 220.915C80.345 218.372 90.3512 183.752 90.3347 183.755C91.5615 181.372 97.7532 169.425 97.7532 169.425" fill="#466EB6"/>
<path d="M74.5236 134.432C74.5236 134.432 56.5555 134.409 52.7086 134.188C49.2267 133.988 35.4171 134.338 34.8773 134.276C34.3373 134.213 30.7678 128.185 30.1744 128.834C29.5813 129.481 32.1609 131.822 31.363 132.429C30.5651 133.038 21.9947 131.676 22.1084 132.307C22.3213 133.49 27.3214 133.34 27.3163 133.911C27.3112 134.481 22.0831 133.591 21.7287 134.538C21.3741 135.485 26.7578 134.925 26.9725 135.347C27.1874 135.769 21.9794 136.544 22.5122 137.425C22.8015 137.904 27.1267 136.625 27.1057 137.278C27.0847 137.93 23.9291 139.413 24.3161 139.934C24.7031 140.453 26.7925 138.34 28.6236 138.314C30.4545 138.287 31.7656 137.334 34.6885 138.133C36.1316 138.528 47.1488 139.871 56.4584 140.664C66.002 141.478 73.8251 141.735 73.8251 141.735L74.5236 134.432" fill="#F7A491"/>
<path d="M101.167 150.358C101.405 147.482 100.838 142.006 100.708 141.051C101.58 138.064 103.437 131.688 104.104 130.436C104.104 130.436 100.976 124.442 97.7735 124.483C97.7735 124.483 94.503 131.833 91.9743 133.148C91.9373 133.139 91.0798 133.53 90.7025 133.527C88.2609 133.51 79.7295 133.252 78.1371 133.224L79.033 145.292C82.3955 154.182 81.782 162.049 81.189 164.789C80.8592 166.313 95.6753 170.889 97.9513 169.429C98.0417 169.37 100.685 156.174 101.167 150.358" fill="#50BFA5"/>
<path d="M82.4723 133.68C80.8984 132.93 69.5105 133.306 69.5105 133.306C69.5105 133.306 67.9191 141.213 69.2045 143.114C69.2045 143.114 79.3871 144.623 79.0976 145.457L82.4723 133.68" fill="#50BFA5"/>
<path d="M84.4569 128.148C84.4569 128.148 85.6403 132.301 85.8552 134.096C86.0698 135.891 88.8127 141.482 92.5463 140.683C96.2798 139.883 92.3845 134.663 91.6534 133.018C90.9222 131.374 88.9455 124.728 88.9455 124.728L84.4569 128.148Z" fill="#F7A491"/>
<path d="M89.775 127.453C89.3055 125.939 88.9455 124.728 88.9455 124.728L84.4569 128.148C84.4569 128.148 84.6744 128.912 84.94 129.926C87.3129 130.246 88.9355 129.116 89.775 127.453" fill="#F47257"/>
<path d="M81.2026 115.711C81.2026 115.711 79.2456 116.831 78.5589 119.207C77.8723 121.583 78.7826 127.675 83.9007 129.072C89.0189 130.471 91.1558 125.606 90.0509 121.843C88.9459 118.08 86.5925 113.328 81.2026 115.711Z" fill="#F7A491"/>
<path d="M90.6668 120.369C90.582 121.386 90.0316 122.17 89.4379 122.12C88.844 122.071 88.4316 121.207 88.5166 120.19C88.6016 119.175 89.1517 118.391 89.7455 118.44C90.3394 118.49 90.7519 119.352 90.6668 120.369" fill="#F7A491"/>
<path d="M101.557 235.066C101.236 234.259 97.985 236.83 97.218 237.351C96.3553 237.937 96.2917 238.597 96.3127 238.746C96.3682 239.141 104.64 249.298 107.058 250.702C107.287 250.834 107.767 250.839 107.909 250.783C109.253 250.267 107.066 241.957 105.302 240.316C104.162 239.255 103.005 238.694 101.557 235.066" fill="#3C8F7C"/>
<path d="M81.7958 115.393C81.7958 115.393 80.9712 122.216 78.7814 123.478C76.5916 124.738 77.5601 127.745 77.5601 127.745C77.5601 127.745 75.4548 120.76 77.1677 118.482C78.8803 116.205 81.7958 115.393 81.7958 115.393" fill="#FF3B3B"/>
<path d="M80.1034 124.436C80.7151 125.314 80.7282 126.36 80.1326 126.772C79.5372 127.185 78.5586 126.806 77.947 125.928C77.3352 125.05 77.3222 124.004 77.9176 123.592C78.513 123.179 79.4916 123.558 80.1034 124.436Z" fill="#F7A491"/>
<path d="M159.038 75.8146C162.721 71.1193 171.115 64.2643 172.928 62.8086C174.548 64.4553 176.989 69.3185 177.31 71.5152C174.991 71.9912 164.927 75.1044 159.038 75.8146V75.8146ZM172.847 60.0404C170.055 60.5888 158.896 75.4957 158.896 75.4957L158.503 76.5278C158.503 76.5278 178.691 74.2895 179.422 73.43C181.396 71.107 175.142 59.5906 172.847 60.0404" fill="#82C7E6"/>
<path d="M135.975 70.9961C134.754 69.7822 137.792 64.728 139.176 63.6527C139.53 63.454 153.604 72.384 155.568 75.4341C147.712 74.5868 137.11 72.002 135.975 70.9961V70.9961ZM145.804 62.5852C140.312 59.0129 138.804 59.0391 137.203 59.9449C135.603 60.8507 129.702 69.2908 132.34 71.9249C134.977 74.5576 155.897 76.4354 155.897 76.4354L156.37 75.1583C156.37 75.1583 151.295 66.156 145.804 62.5852Z" fill="#82C7E6"/>
<path d="M156.065 80.3913H157.243C158.409 80.3913 159.355 79.4485 159.355 78.2855V74.8318C159.355 73.6687 158.409 72.7259 157.243 72.7259H156.065C154.899 72.7259 153.952 73.6687 153.952 74.8318V78.2855C153.952 79.4485 154.899 80.3913 156.065 80.3913Z" fill="#82C7E6"/>
<path d="M200.693 76.5925L104.987 76.306C102.441 76.2983 100.487 78.5581 100.869 81.0706L102.35 90.8077L107.147 90.7985L110.038 139.802C110.193 142.424 112.37 144.472 115.002 144.472H191.391L194.569 90.6167L199.088 90.609L200.693 76.5925Z" fill="#B32323"/>
<path d="M105.567 91.9554L105.588 90.7785C104.672 90.4211 103.592 90.5366 103.057 90.3918L101.773 89.4491C101.504 89.332 101.124 89.6263 101.127 89.9189C101.129 90.2024 101.491 90.7662 101.673 90.911C101.673 90.911 103.967 92.7949 104.774 93.368C105.174 93.6514 106.431 94.4171 106.431 94.4171L107.164 93.0507L105.567 91.9554" fill="#F7A491"/>
<path d="M193.025 144.472H134.391L131.252 77.6061H200.915L197.994 139.823C197.872 142.424 195.684 144.472 193.025 144.472" fill="#FF3B3B"/>
<path d="M203.792 90.6414L128.167 90.8416L126.439 76.3322L200.524 76.6156C202.958 76.6249 204.861 78.7091 204.645 81.1245L203.792 90.6414Z" fill="#FF3B3B"/>
<path d="M128.167 90.8416L200.297 90.6413L130.453 94.4432L128.167 90.8416Z" fill="#B32323"/>
<path d="M158.551 90.7754H156.544V76.4462H158.551V90.7754Z" fill="#82C7E6"/>
<path d="M164.873 144.572H162.366V90.7076H164.873V144.572Z" fill="#82C7E6"/>
<path d="M104.318 48.3437C110.998 50.9286 116.499 52.6678 121.985 54.1219C123.794 54.601 126.792 55.9659 128.457 54.7505C129.322 54.1189 129.685 53.1684 129.177 52.1563C128.244 50.3032 125.361 50.1707 123.538 49.687C117.981 48.2113 111.764 46.278 105.594 43.9611C104.437 43.5267 103.083 44.3986 102.758 45.5155C102.387 46.7879 103.163 47.897 104.318 48.3437Z" fill="#DEF0F8"/>
<path d="M147.077 38.109C145.107 23.0604 145.235 23.0219 144.399 21.6016C143.542 20.1459 141.194 20.3461 140.73 22.0299C140.273 23.6951 140.378 23.4301 142.512 39.2567C142.681 40.5152 144.234 41.2438 145.37 40.9588C146.723 40.6199 147.244 39.3722 147.077 38.109" fill="#DEF0F8"/>
<path d="M171.345 40.0423C172.839 38.032 174.1 35.8877 175.13 33.6063C176.089 31.4882 177.845 28.3688 176.199 26.2707C175.845 25.8193 175.013 25.6052 174.48 25.7885C172.247 26.5557 171.821 29.6766 170.929 31.6268C169.956 33.7557 168.754 35.7799 167.433 37.71C166.74 38.7252 167.208 40.2225 168.221 40.8264C169.363 41.5072 170.61 41.0312 171.345 40.0423" fill="#DEF0F8"/>
<path d="M204.94 51.4801C205.615 50.5559 205.048 49.3574 204.255 48.7659C202.621 47.5505 199.738 48.6719 197.957 49.1618C195.88 49.7333 193.876 50.505 191.921 51.4C190.793 51.9161 190.481 53.512 191.055 54.5225C191.726 55.7071 193.038 55.8642 194.187 55.3867C201.697 52.2688 203.273 53.76 204.94 51.4801Z" fill="#DEF0F8"/>
</svg>
