<svg width="20" height="20" viewBox="0 0 20 20" fill="none" xmlns="http://www.w3.org/2000/svg">
<path d="M8.75023 12.8991C8.95897 12.8991 9.15068 12.7841 9.24921 12.6002L10.4992 10.2679L10.4992 10.2679C10.5433 10.1856 10.5665 10.0937 10.5666 10.0003V10.0001V5.83342C10.5666 5.52047 10.3129 5.26675 9.99996 5.26675C9.68701 5.26675 9.43329 5.52047 9.43329 5.83342V9.85745L8.25072 12.0647L8.25071 12.0647C8.10326 12.3399 8.20617 12.6836 8.48178 12.8315C8.56424 12.8762 8.65658 12.8994 8.75023 12.8991ZM8.75023 12.8991C8.75013 12.8991 8.75002 12.8991 8.74991 12.8991L8.74996 12.7491L8.75051 12.8991C8.75042 12.8991 8.75033 12.8991 8.75023 12.8991ZM9.99996 18.4834H10.0001C14.683 18.4779 18.4778 14.6831 18.4833 10.0003V10.0001C18.4833 5.31488 14.6852 1.51675 9.99996 1.51675C5.31476 1.51675 1.51663 5.31488 1.51663 10.0001C1.51663 14.6853 5.31476 18.4834 9.99996 18.4834ZM9.99996 17.3501C5.94065 17.3501 2.64996 14.0594 2.64996 10.0001C2.64996 5.94081 5.94059 2.65014 9.99985 2.65008C14.0574 2.65455 17.3455 5.94271 17.35 10.0002C17.3499 14.0595 14.0592 17.3501 9.99996 17.3501Z" fill="#FFFEFE" stroke="#FDFDFD" stroke-width="0.3"/>
</svg>
