<svg width="445" height="297" viewBox="0 0 445 297" fill="none" xmlns="http://www.w3.org/2000/svg">
<path d="M78.9204 194.347C73.8718 198.13 59.6003 201.409 59.6199 199.869C59.6407 198.329 71.7008 187.708 75.151 188.523C78.6018 189.338 78.9204 194.347 78.9204 194.347Z" fill="#E5DAF0"/>
<path d="M90.5622 206.168C87.1476 211.476 74.9113 219.528 74.3945 218.078C73.8771 216.628 81.4836 202.464 85.0015 202.024C88.52 201.585 90.5622 206.168 90.5622 206.168Z" fill="#E5DAF0"/>
<path d="M67.7355 86.5316L70.4026 82.3023L73.4007 83.8164L71.0268 87.8841L67.7355 86.5316Z" fill="#F79AAE"/>
<path d="M71.5216 83.5877C69.3571 82.2405 70.0917 80.1728 71.3448 78.6337C72.5783 77.119 74.3631 76.269 74.5286 76.408C74.6941 76.5476 73.9062 77.4873 73.9062 77.4873C73.9062 77.4873 75.2062 76.6919 76.006 76.3308C76.4184 76.1443 75.1362 78.0373 75.2424 78.1395C75.3403 78.2334 76.8355 76.6509 77.0746 76.8517C77.4864 77.0721 76.1899 79.0299 76.1899 79.0299C76.1899 79.0299 77.6715 77.8241 77.716 78.3326C77.7599 78.841 75.1575 81.2717 75.1575 81.2717C75.1575 81.2717 76.5726 80.4822 76.5335 81.2028C76.4937 81.9239 74.0682 85.1731 71.5216 83.5877" fill="#F79AAE"/>
<path d="M115.553 80.2542L113.634 75.6364L110.425 76.6242L112.082 81.0329L115.553 80.2542" fill="#F79AAE"/>
<path d="M112.315 76.7151C114.676 75.7505 114.298 73.5889 113.321 71.861C112.36 70.1603 110.743 69.0222 110.556 69.1315C110.369 69.2408 110.989 70.2999 110.989 70.2999C110.989 70.2999 109.841 69.2972 109.113 68.8066C108.738 68.5536 109.684 70.6349 109.562 70.7175C109.45 70.7935 108.242 68.9818 107.972 69.1404C107.529 69.2883 108.479 71.4362 108.479 71.4362C108.479 71.4362 107.221 69.9982 107.091 70.4924C106.963 70.9866 109.12 73.82 109.12 73.82C109.12 73.82 107.857 72.8036 107.775 73.5206C107.693 74.2375 109.539 77.8497 112.315 76.7151" fill="#F79AAE"/>
<path d="M119.541 169.589C119.541 169.589 134.001 208.711 124.884 217.545C119.403 222.856 87.3138 211.463 87.3138 211.463L89.3519 205.057L108.826 207.92L103.911 183.136L111.005 168.669L119.541 169.589" fill="#050606"/>
<path d="M104.352 164.161C104.352 164.161 89.229 173.816 91.3015 183.377C93.3746 192.94 92.0135 208.243 92.0135 208.243L78.5905 192.326L73.9127 197.15C73.9127 197.15 87.0657 228.365 101.372 223.927C115.282 219.613 114.524 172.338 114.524 172.338L104.352 164.161Z" fill="#323231"/>
<path d="M99.4854 111.578C101.106 116.416 99.0956 119.759 95.7735 120.875C92.4508 121.99 89.0759 120.457 87.455 115.619C85.834 110.781 87.4111 106.695 90.7331 105.579C94.0552 104.464 97.8644 106.741 99.4854 111.578Z" fill="#F79AAE"/>
<path d="M90.6406 180.873C109.426 180.873 120.607 170.643 120.607 170.643C120.607 170.643 118.896 140.843 120.799 133.494C123.491 123.1 124.909 106.794 125.32 98.1252C125.733 89.4564 116.332 78.7804 116.332 78.7804L109.426 80.187C109.426 80.187 114.916 91.2319 114.916 97.836C114.916 104.441 114.15 111.029 108.587 115.824C95.5534 127.058 81.8753 128.172 77.6353 122.139C72.144 114.327 67.5201 110.566 68.387 105.069C69.2539 99.5722 74.7452 87.4202 74.7452 87.4202L68.676 85.6845C68.676 85.6845 53.359 100.729 56.8272 113.459C60.2951 126.19 76.4795 144.996 76.4795 144.996L90.6406 180.873Z" fill="#F35D50"/>
<path d="M91.1384 126.374C90.0906 125.062 90.7865 117.465 90.7865 117.465L96.8154 118.04L98.278 123.98C98.278 123.98 99.044 128.113 96.3781 128.729C93.7117 129.345 92.6769 128.3 91.1384 126.374Z" fill="#F79AAE"/>
<path d="M90.1505 109.957C90.1505 109.957 92.528 110.959 92.722 109.5C92.916 108.041 97.0949 110.084 98.1148 107.992C99.1353 105.9 98.9105 102.443 97.1649 102.267C95.4193 102.091 92.4787 105.755 90.9272 104.12C89.3762 102.485 83.5194 105.76 83.6879 108.353C83.857 110.946 83.6179 116.169 86.896 117.692C90.1742 119.214 91.4072 115.951 90.7005 113.972C89.9938 111.993 90.1505 109.957 90.1505 109.957" fill="#050606"/>
<path d="M91.0269 114.208C91.0886 115.164 90.3659 115.987 89.4124 116.05C88.4583 116.112 87.6353 115.388 87.573 114.434C87.5107 113.479 88.234 112.654 89.1875 112.592C90.141 112.53 90.9646 113.254 91.0269 114.208Z" fill="#F79AAE"/>
<path d="M100.183 111.014C100.245 111.969 99.5222 112.793 98.5687 112.855C97.6152 112.917 96.7917 112.194 96.7294 111.239C96.6671 110.284 97.3903 109.46 98.3438 109.398C99.2973 109.336 100.121 110.06 100.183 111.014Z" fill="#F79AAE"/>
<path d="M94.4895 113.116C94.5833 113.452 94.4415 113.785 94.1733 113.86C93.9051 113.935 93.6114 113.724 93.5171 113.389C93.4233 113.053 93.5651 112.72 93.8333 112.644C94.1021 112.57 94.3952 112.781 94.4895 113.116Z" fill="#050606"/>
<path d="M97.8169 111.933C97.9113 112.27 97.7695 112.602 97.5013 112.677C97.2325 112.752 96.9388 112.542 96.8451 112.205C96.7513 111.87 96.8925 111.537 97.1613 111.462C97.4295 111.386 97.7232 111.598 97.8169 111.933Z" fill="#050606"/>
<path d="M96.0885 113.141C96.0885 113.141 97.3642 113.948 97.3007 114.316C97.2378 114.685 96.7394 114.979 96.7394 114.979" stroke="#F35D50" stroke-width="0.872692" stroke-miterlimit="10"/>
<path d="M95.4668 116.969L98.1546 115.774C98.1546 115.774 98.2881 117.005 97.6152 117.511C96.9424 118.017 95.4668 116.969 95.4668 116.969Z" fill="#E5DAF0"/>
<path d="M91.705 207.291C91.705 207.291 91.2636 210.828 93.6921 214.364" stroke="#050606" stroke-width="1.74539" stroke-miterlimit="10"/>
<path d="M92.0853 188.106C92.0853 188.106 96.4202 184.634 97.865 180.583" stroke="#050606" stroke-width="1.74539" stroke-miterlimit="10"/>
<path d="M113.76 177.112C113.76 177.112 116.362 179.426 114.049 187.817" stroke="#050606" stroke-width="1.74539" stroke-miterlimit="10"/>
<path d="M387.616 113.18L390.246 108.927L387.574 106.891L384.961 110.81L387.616 113.18Z" fill="#F79AAE"/>
<path d="M388.602 108.483C390.76 109.841 392.295 108.274 393.128 106.473C393.948 104.698 393.93 102.72 393.732 102.633C393.535 102.544 393.036 103.665 393.036 103.665C393.036 103.665 393.181 102.147 393.156 101.269C393.142 100.816 392.003 102.799 391.865 102.748C391.738 102.701 392.504 100.662 392.219 100.535C391.841 100.261 390.651 102.285 390.651 102.285C390.651 102.285 391.084 100.424 390.609 100.607C390.133 100.789 389.09 104.197 389.09 104.197C389.09 104.197 389.179 102.577 388.549 102.928C387.919 103.279 386.063 106.885 388.602 108.483" fill="#F79AAE"/>
<path d="M321.677 107.755L321.109 102.785L324.393 102.084L325.088 106.744L321.677 107.755" fill="#F79AAE"/>
<path d="M322.786 103.085C320.255 103.392 319.534 101.32 319.547 99.3346C319.56 97.3803 320.419 95.5989 320.635 95.6037C320.852 95.6078 320.825 96.8344 320.825 96.8344C320.825 96.8344 321.34 95.3988 321.737 94.6159C321.943 94.2119 322.128 96.4911 322.275 96.5042C322.41 96.5161 322.585 94.345 322.897 94.3509C323.355 94.2648 323.571 96.6034 323.571 96.6034C323.571 96.6034 323.971 94.7353 324.323 95.1035C324.676 95.4718 324.169 98.999 324.169 98.999C324.169 98.999 324.778 97.4956 325.198 98.0824C325.618 98.6687 325.763 102.723 322.786 103.085" fill="#F79AAE"/>
<path d="M373.143 188.024L370.365 185.071C369.243 183.879 369.358 181.987 370.615 180.94C370.615 180.94 379.934 169.147 381.101 172.204C382.268 175.26 377.289 185.406 377.289 185.406L373.143 188.024" fill="#F7981A"/>
<path d="M328.489 210.963C328.489 210.963 331.958 211.831 333.113 212.988C334.269 214.145 341.492 224.328 339.472 225.719C334.847 228.901 324.732 215.303 324.732 215.303C324.732 215.303 324.732 211.252 328.489 210.963" fill="#F7981A"/>
<path d="M339.183 179.137C339.183 179.137 297.855 191.867 296.121 197.943C294.387 204.019 324.732 217.039 324.732 217.039L328.489 210.963L322.998 205.176C322.998 205.176 335.715 199.389 343.806 201.125C351.898 202.862 373.863 218.774 380.509 215.013C387.156 211.252 377.041 185.791 377.041 185.791H370.684L371.262 194.761L359.413 185.502L339.183 179.137" fill="#E5DAF0"/>
<path d="M347.563 140.946C356.983 143.133 364.754 140.559 371.551 131.108C376.752 123.876 385.423 109.409 385.423 109.409L389.758 112.013C390.336 114.038 371.673 150.849 366.059 166.117C359.951 182.731 360.279 186.659 360.279 186.659C348.63 189.953 336.531 187.508 329.645 181.741C329.645 181.741 335.136 155.702 331.668 147.022C328.201 138.341 320.397 105.937 320.397 105.937L325.31 105.358C325.31 105.358 338.144 138.758 347.563 140.946" fill="#465EB4"/>
<path d="M323.287 205.466C323.287 205.466 318.374 199.679 315.484 198.232" stroke="#050606" stroke-width="1.74539" stroke-miterlimit="10"/>
<path d="M379.065 203.44C379.065 203.44 375.019 197.075 370.972 193.893" stroke="#050606" stroke-width="1.74539" stroke-miterlimit="10"/>
<path d="M342.362 187.817C342.362 187.817 339.471 197.364 341.494 200.258" stroke="#050606" stroke-width="1.74539" stroke-miterlimit="10"/>
<path d="M325.599 184.056C325.599 184.056 328.201 186.081 332.824 184.056" stroke="#050606" stroke-width="1.74539" stroke-miterlimit="10"/>
<path d="M355.655 187.528C355.655 187.528 362.013 190.421 364.326 189.553" stroke="#050606" stroke-width="1.74539" stroke-miterlimit="10"/>
<path d="M346.497 128.012C344.082 132.505 345.499 136.141 348.585 137.803C351.67 139.465 355.257 138.525 357.671 134.031C360.086 129.538 359.222 125.243 356.137 123.581C353.051 121.919 348.911 123.518 346.497 128.012Z" fill="#F79AAE"/>
<path d="M355.624 143.512C356.517 142.09 354.968 134.62 354.968 134.62L349.043 135.873L348.259 141.941C348.259 141.941 347.591 144.903 350.309 145.213C353.027 145.524 354.313 145.601 355.624 143.512Z" fill="#F79AAE"/>
<path d="M345.904 127.338C345.682 128.268 346.255 129.203 347.184 129.425C348.114 129.648 349.047 129.075 349.27 128.144C349.492 127.214 348.919 126.278 347.99 126.056C347.061 125.833 346.127 126.407 345.904 127.338Z" fill="#F79AAE"/>
<path d="M351.161 130.373C351.011 130.688 351.094 131.041 351.346 131.16C351.599 131.279 351.923 131.121 352.073 130.807C352.222 130.492 352.139 130.139 351.887 130.019C351.635 129.9 351.31 130.059 351.161 130.373" fill="#050606"/>
<path d="M348.081 128.644C347.931 128.959 348.015 129.311 348.266 129.431C348.519 129.55 348.844 129.392 348.993 129.077C349.142 128.762 349.059 128.41 348.807 128.29C348.555 128.171 348.23 128.33 348.081 128.644Z" fill="#050606"/>
<path d="M349.58 130.127C349.58 130.127 348.187 130.706 348.187 131.08C348.187 131.453 348.628 131.828 348.628 131.828" stroke="#F35D50" stroke-width="0.872692" stroke-miterlimit="10"/>
<path d="M349.546 134.005L347.099 132.372C347.099 132.372 346.759 133.563 347.337 134.175C347.915 134.788 349.546 134.005 349.546 134.005Z" fill="#E5DAF0"/>
<path d="M351.718 123.839C351.718 123.839 346.408 127.962 347.058 125.033C347.708 122.103 352.585 121.452 354.211 114.834C355.836 108.216 362.231 110.386 362.88 107.565C363.531 104.744 371.767 106.805 371.767 109.083C371.767 111.362 369.275 112.447 371.551 116.245C373.826 120.041 368.95 121.018 367.974 125.141C366.999 129.264 362.339 129.047 361.905 131.759C361.472 134.471 357.57 136.425 356.92 135.665C356.269 134.906 355.077 131.759 355.186 129.155C355.295 126.551 350.742 128.179 351.718 123.839" fill="#050606"/>
<path d="M354.389 132.036C354.167 132.966 354.74 133.901 355.669 134.124C356.599 134.347 357.533 133.774 357.755 132.843C357.978 131.913 357.404 130.978 356.475 130.755C355.545 130.532 354.612 131.105 354.389 132.036Z" fill="#F79AAE"/>
<path d="M284.557 221.952C286.325 228.013 295.773 239.212 296.68 237.969C297.588 236.726 294.314 220.982 291.065 219.56C287.817 218.138 284.557 221.952 284.557 221.952" fill="#E5DAF0"/>
<path d="M249.297 217.964C248.551 224.234 252.86 238.244 254.182 237.455C255.503 236.667 258.652 220.898 256.22 218.316C253.788 215.733 249.297 217.964 249.297 217.964Z" fill="#E5DAF0"/>
<path d="M291.871 177.968L288.772 181.892L285.95 180.069L288.741 176.275L291.871 177.968Z" fill="#F79AAE"/>
<path d="M287.795 180.495C289.805 182.064 288.857 184.043 287.448 185.44C286.062 186.816 284.197 187.472 284.048 187.317C283.898 187.161 284.78 186.309 284.78 186.309C284.78 186.309 283.403 186.963 282.57 187.238C282.14 187.38 283.615 185.633 283.52 185.52C283.433 185.417 281.779 186.832 281.562 186.606C281.176 186.344 282.672 184.534 282.672 184.534C282.672 184.534 281.072 185.576 281.081 185.066C281.09 184.556 283.935 182.414 283.935 182.414C283.935 182.414 282.445 183.05 282.56 182.337C282.675 181.624 285.43 178.649 287.795 180.495" fill="#F79AAE"/>
<path d="M246.747 55.8615L248.667 51.2432L251.876 52.231L250.218 56.6403L246.747 55.8615" fill="#F79AAE"/>
<path d="M249.985 52.3225C247.625 51.3584 248.003 49.1963 248.979 47.4677C249.941 45.7677 251.557 44.6296 251.744 44.7389C251.931 44.8488 251.312 45.9073 251.312 45.9073C251.312 45.9073 252.46 44.904 253.187 44.4134C253.563 44.1609 252.616 46.2423 252.738 46.3249C252.85 46.4009 254.059 44.5898 254.329 44.7478C254.771 44.8957 253.822 47.0436 253.822 47.0436C253.822 47.0436 255.08 45.6061 255.209 46.0997C255.338 46.5933 253.181 49.4273 253.181 49.4273C253.181 49.4273 254.443 48.411 254.525 49.1279C254.607 49.8449 252.762 53.457 249.985 52.3225" fill="#F79AAE"/>
<path d="M254.56 145.029C254.56 145.029 215.61 179.149 218.9 191.416C220.877 198.792 248.939 220.8 248.939 220.8L252.411 217.105L237.616 191.416L263.472 162.874L264.809 146.813L254.56 145.029Z" fill="#465EB4"/>
<path d="M272.83 146.367L276.683 161.777L270.903 201.705L287.377 220.221L285.596 224.913C285.596 224.913 261.839 216.913 251.841 205.75C242.12 194.894 259.907 148.152 259.907 148.152L272.83 146.367" fill="#465EB4"/>
<path d="M286.635 141.433C284.712 142.973 276.445 162.414 276.445 162.414C259.141 172.808 247.605 152.019 247.605 152.019C247.605 152.019 249.316 122.22 247.413 114.871C244.721 104.477 242.826 93.1273 242.414 84.4591C242.002 75.7902 245.298 53.2771 245.298 53.2771L252.204 54.6837C252.204 54.6837 252.616 65.8289 252.616 72.4335C252.616 79.0382 255.09 91.4219 259.625 97.201C264.161 102.98 279.897 108.327 286.427 113.712C294.891 120.692 302.948 143.387 302.948 151.504C302.948 159.621 291.395 180.523 291.395 180.523L285.314 176.261C285.314 176.261 290.584 155.563 289.367 151.91C288.151 148.257 286.635 141.433 286.635 141.433" fill="#F7981A"/>
<path d="M265.987 95.8978C265.723 100.993 268.556 103.673 272.056 103.855C275.555 104.037 278.396 101.652 278.66 96.5559C278.924 91.4606 276.309 87.9483 272.81 87.7665C269.31 87.5841 266.252 90.8018 265.987 95.8978Z" fill="#F79AAE"/>
<path d="M276.643 108.465C277.742 107.196 275.374 100.001 275.374 100.001L269.327 100.338L269.603 105.793C269.603 105.793 268.676 109.893 271.315 110.612C273.955 111.333 275.031 110.33 276.643 108.465Z" fill="#F79AAE"/>
<path d="M279.989 95.8811C279.792 94.9444 278.875 94.345 277.94 94.541C277.004 94.7377 276.405 95.656 276.601 96.5921C276.798 97.5283 277.715 98.1282 278.65 97.9322C279.585 97.7356 280.185 96.8172 279.989 95.8811Z" fill="#F79AAE"/>
<path d="M264.796 95.9221C264.992 96.8582 265.909 97.4582 266.845 97.2615C267.78 97.0655 268.379 96.1472 268.183 95.2105C267.987 94.2743 267.069 93.6744 266.134 93.871C265.199 94.067 264.6 94.9859 264.796 95.9221Z" fill="#F79AAE"/>
<path d="M273.159 95.6643C273.158 96.013 273.384 96.2963 273.663 96.2963C273.941 96.2969 274.168 96.0142 274.169 95.6655C274.169 95.3174 273.943 95.0346 273.664 95.034C273.385 95.034 273.159 95.3156 273.159 95.6643Z" fill="#050606"/>
<path d="M269.636 95.4189C269.636 95.7676 269.861 96.051 270.14 96.051C270.419 96.0516 270.645 95.7688 270.645 95.4201C270.646 95.0721 270.421 94.7893 270.142 94.7893C269.863 94.7887 269.636 95.0709 269.636 95.4189Z" fill="#050606"/>
<path d="M271.624 96.1187C271.624 96.1187 270.612 97.2378 270.772 97.5758C270.932 97.9144 271.491 98.0629 271.491 98.0629" stroke="#F35D50" stroke-width="0.872692" stroke-miterlimit="10"/>
<path d="M273.25 99.6393L270.341 99.2099C270.341 99.2099 270.542 100.432 271.326 100.738C272.11 101.044 273.25 99.6393 273.25 99.6393" fill="#E5DAF0"/>
<path d="M266.137 89.2509C265.456 92.7781 266.504 94.6693 266.504 94.6693C266.504 94.6693 267.478 91.0614 269.452 90.2102C270.603 89.713 274.396 89.6233 275.872 90.7668C276.48 91.2384 277.994 95.8039 277.994 95.8039L279.265 93.7552C279.265 93.7552 282.131 90.5102 281.564 88.8731C280.294 85.2093 278.179 86.7151 276.404 85.8015C274.628 84.8879 271.394 81.0454 271.394 81.0454L270.84 83.6566L267.919 81.4576L267.297 85.2847L265.769 83.5716L266.137 89.2509" fill="#050606"/>
<path d="M251.26 177.073C251.26 177.073 251.665 171.391 252.476 168.144C253.287 164.897 255.922 161.447 255.922 161.447" stroke="#050606" stroke-width="1.74539" stroke-miterlimit="10"/>
<path d="M275.381 171.188C275.381 171.188 271.733 167.536 270.922 165.101" stroke="#050606" stroke-width="1.74539" stroke-miterlimit="10"/>
<path d="M249.436 154.751C249.436 154.751 245.989 156.984 243.963 154.954" stroke="#050606" stroke-width="1.74539" stroke-miterlimit="10"/>
<path d="M185.614 227.804L188.577 230.571C189.774 231.688 189.781 233.584 188.594 234.71C188.594 234.71 180.054 247.081 178.693 244.105C177.332 241.131 181.645 230.683 181.645 230.683L185.614 227.804" fill="#E5DAF0"/>
<path d="M173.945 169.102C173.945 169.102 166.937 199.266 166.937 207.491C166.937 214.435 181.387 231.794 181.387 231.794L187.167 228.612L178.208 202.572C178.208 202.572 200.172 179.715 195.259 163.224C190.346 146.732 173.945 169.102 173.945 169.102Z" fill="#F58113"/>
<path d="M197.118 206.049L201.128 205.469C202.747 205.235 204.228 206.416 204.362 208.048C204.362 208.048 208.649 222.459 205.48 221.659C202.31 220.859 196.875 210.951 196.875 210.951L197.118 206.049" fill="#E5DAF0"/>
<path d="M215.576 129.278L216.243 124.322L212.973 123.556L212.185 128.199L215.576 129.278" fill="#F79AAE"/>
<path d="M214.561 124.588C217.085 124.946 217.848 122.889 217.874 120.903C217.9 118.949 217.076 117.15 216.86 117.15C216.644 117.151 216.645 118.378 216.645 118.378C216.645 118.378 216.159 116.932 215.778 116.141C215.581 115.734 215.35 118.009 215.203 118.019C215.068 118.028 214.936 115.854 214.624 115.854C214.167 115.759 213.905 118.093 213.905 118.093C213.905 118.093 213.542 116.216 213.182 116.577C212.823 116.939 213.259 120.475 213.259 120.475C213.259 120.475 212.68 118.96 212.248 119.538C211.816 120.116 211.592 124.167 214.561 124.588" fill="#F79AAE"/>
<path d="M156.257 98.9978L157.83 94.25L161.104 94.9972L159.776 99.5176L156.257 98.9978" fill="#F79AAE"/>
<path d="M159.225 95.2283C156.8 94.4412 157.017 92.2577 157.863 90.462C158.696 88.6949 160.225 87.4404 160.419 87.5354C160.613 87.631 160.074 88.7323 160.074 88.7323C160.074 88.7323 161.145 87.6471 161.834 87.1042C162.19 86.8244 161.4 88.9699 161.528 89.0436C161.645 89.1113 162.716 87.2153 162.997 87.3525C163.45 87.4677 162.661 89.6798 162.661 89.6798C162.661 89.6798 163.81 88.1532 163.975 88.6355C164.14 89.119 162.198 92.1045 162.198 92.1045C162.198 92.1045 163.381 90.9972 163.517 91.7065C163.651 92.4157 162.078 96.1543 159.225 95.2283" fill="#F79AAE"/>
<path d="M178.705 196.756L198.727 205.177L196.704 211.831C196.704 211.831 159.712 203.73 158.845 197.075C157.83 189.289 182.75 163.044 182.75 163.044L196.218 161.368C196.218 161.368 206.449 181.711 178.705 196.756Z" fill="#F7981A"/>
<path d="M186.589 125.901C194.97 126.19 204.796 137.184 207.975 137.474C211.154 137.763 211.443 126.19 211.443 126.19L217.223 126.769C217.223 126.769 218.09 146.153 212.888 149.914C208.717 152.931 196.704 143.55 196.126 149.336C196.126 149.336 198.347 158.725 197.86 165.538C197.374 172.351 178.878 169.911 173.945 169.102C168.093 168.142 164.336 148.902 163.469 144.562C163.24 143.415 149.621 133.56 148.882 123.579C147.873 109.962 155.666 96.6783 155.666 96.6783L161.47 98.3248C161.47 98.3248 153.966 116.915 158.511 120.837C163.764 125.369 167.814 126.249 171.705 126.769C178.208 127.637 178.208 125.611 186.589 125.901" fill="#050606"/>
<path d="M169.516 116.025C169.066 121.108 171.8 123.889 175.29 124.199C178.78 124.509 181.706 122.229 182.156 117.146C182.605 112.064 180.121 108.458 176.63 108.148C173.139 107.839 169.966 110.943 169.516 116.025" fill="#F79AAE"/>
<path d="M180.573 128.271C181.48 126.858 180.004 119.374 180.004 119.374L174.067 120.569L173.196 127.788C173.196 127.788 172.89 130.819 175.605 131.156C178.32 131.493 179.242 130.347 180.573 128.271" fill="#F79AAE"/>
<path d="M168.706 115.639C168.868 116.582 169.763 117.215 170.704 117.052C171.647 116.891 172.278 115.995 172.117 115.052C171.955 114.109 171.06 113.476 170.118 113.638C169.176 113.8 168.544 114.696 168.706 115.639Z" fill="#F79AAE"/>
<path d="M174.732 116.355C174.719 116.703 174.934 116.994 175.213 117.004C175.491 117.015 175.728 116.741 175.741 116.393C175.754 116.044 175.539 115.754 175.26 115.743C174.982 115.733 174.745 116.006 174.732 116.355Z" fill="#050606"/>
<path d="M171.221 115.981C171.208 116.329 171.423 116.62 171.701 116.63C171.979 116.641 172.216 116.367 172.229 116.019C172.242 115.67 172.027 115.38 171.749 115.369C171.47 115.359 171.234 115.633 171.221 115.981Z" fill="#050606"/>
<path d="M173.182 116.752C173.182 116.752 172.13 117.834 172.277 118.177C172.424 118.521 172.978 118.691 172.978 118.691" stroke="#F35D50" stroke-width="0.872692" stroke-miterlimit="10"/>
<path d="M174.678 120.33L171.787 119.794C171.787 119.794 171.943 121.023 172.715 121.357C173.488 121.693 174.678 120.33 174.678 120.33" fill="#E5DAF0"/>
<path d="M172.139 110.566C172.139 110.566 174.162 114.039 177.63 114.327C181.098 114.617 179.942 122.139 181.387 121.272C182.832 120.404 189.046 112.013 182.687 107.384C176.33 102.754 170.405 107.818 169.827 109.843C169.249 111.869 169.683 113.749 169.683 113.749C169.683 113.749 170.838 112.302 172.139 110.566" fill="#050606"/>
<path d="M181.793 108.466C181.793 108.466 177.718 101.508 183.949 101.748C190.18 101.988 187.783 113.504 181.793 108.466Z" fill="#050606"/>
<path d="M178.354 116.609C178.516 117.551 179.41 118.185 180.352 118.022C181.294 117.86 181.927 116.965 181.765 116.022C181.603 115.079 180.708 114.446 179.766 114.608C178.824 114.77 178.192 115.665 178.354 116.609" fill="#F79AAE"/>
<path d="M177.052 170.602L172.717 174.652" stroke="#050606" stroke-width="1.74539" stroke-miterlimit="10"/>
<path d="M174.884 195.918L179.219 196.641L176.33 197.798" stroke="#050606" stroke-width="1.74539" stroke-miterlimit="10"/>
<path d="M85.7444 44.9498L91.5656 41.4535V48.0582L88.4607 48.8351L85.7444 44.9498Z" fill="#F35D50"/>
<path d="M197.015 73.4618L194.31 69.425L199.023 69.1868L199.689 71.3792L197.015 73.4618" fill="#F7981A"/>
<path d="M139.723 168.115L137.018 164.078L141.732 163.84L142.398 166.032L139.723 168.115" fill="#F7981A"/>
<path d="M89.693 272.476L86.9874 268.439L91.7009 268.201L92.3672 270.393L89.693 272.476" fill="#F7981A"/>
<path d="M104.621 25.0579V19.0906L109.588 21.0799V26.0529L104.621 25.0579Z" fill="#465EB4"/>
<path d="M213.253 23.3668L209.637 22.474L211.586 19.7535L214.6 20.4978L213.253 23.3668Z" fill="#465EB4"/>
<path d="M25.1159 188.072L21.4988 187.178L23.448 184.458L26.4624 185.203L25.1159 188.072Z" fill="#465EB4"/>
<path d="M314.22 241.283L310.603 240.389L312.553 237.67L315.567 238.414L314.22 241.283" fill="#465EB4"/>
<path d="M134.922 76.114L136.412 71.6388L140.883 74.623L139.392 78.1039L134.922 76.114" fill="#465EB4"/>
<path d="M145.023 220.995L146.016 215.525L149.99 217.514L145.023 220.995Z" fill="#465EB4"/>
<path d="M159.262 44.7847L161.249 40.8061H164.726L165.223 44.2869L159.262 44.7847" fill="#F35D50"/>
<path d="M417.899 139.437L418.689 134.641L422.287 137.697L421.274 139.752L417.899 139.437" fill="#F7981A"/>
<path d="M415.651 70.6088L413.626 67.4784L416.906 66.8315L418.595 69.4398L415.651 70.6088Z" fill="#F35D50"/>
<path d="M377.339 78.7579L381.803 75.4511L383.34 79.6245L377.339 78.7579Z" fill="#465EB4"/>
<path d="M226.613 157.468L231.078 154.161L232.615 158.335L226.613 157.468Z" fill="#465EB4"/>
<path d="M408.101 31.9014L412.27 30.3629L414.805 32.746L412.787 35.6234L408.101 31.9014Z" fill="#465EB4"/>
<path d="M348.024 55.5592L345.32 51.5218L350.033 51.2842L350.699 53.4766L348.024 55.5592" fill="#F7981A"/>
<path d="M368.2 27.9412L364.583 27.0472L366.532 24.3279L369.546 25.0721L368.2 27.9412Z" fill="#F35D50"/>
<path d="M420.88 206.076L417.307 205.02L419.377 202.391L422.354 203.271L420.88 206.076" fill="#F35D50"/>
<path d="M407.151 266.354L408.39 260.934L412.27 263.1L407.151 266.354Z" fill="#465EB4"/>
<path d="M392.389 174.653L394.553 170.767L398.026 170.924L398.366 174.424L392.389 174.653Z" fill="#465EB4"/>
<path d="M28.9334 259.516L31.0974 255.63L34.5709 255.787L34.911 259.287L28.9334 259.516" fill="#465EB4"/>
<path d="M366.447 264.567L361.768 263.265L365.191 260.013L367.123 261.243L366.447 264.567Z" fill="#F7981A"/>
<path d="M396.374 235.914L393.048 237.593L392.759 234.259L395.531 232.859L396.374 235.914Z" fill="#F35D50"/>
<path d="M337.001 87.2135L331.802 89.1695L331.466 84.7341L337.001 87.2135Z" fill="#F35D50"/>
<path d="M304.808 25.0579L306.795 21.0799H310.272L310.769 24.5607L304.808 25.0579" fill="#465EB4"/>
<path d="M57.4827 75.2604L53.1075 77.3697L53.5393 72.6646L55.8018 72.3148L57.4827 75.2604" fill="#F7981A"/>
<path d="M54.2838 163.308L49.9084 165.417L50.3404 160.712L52.6027 160.362L54.2838 163.308" fill="#F7981A"/>
<path d="M117.37 247.85L112.995 249.958L113.427 245.253L115.689 244.904L117.37 247.85Z" fill="#F7981A"/>
<path d="M44.0144 33.4297L42.6189 36.8874L40.2055 34.5708L41.3686 31.6887L44.0144 33.4297" fill="#F7981A"/>
<path d="M151.802 259.951L150.993 266.698L145.781 262.65L147.071 259.717L151.802 259.951" fill="#F35D50"/>
<path d="M216.645 264.318L210.685 264.231L212.745 259.287L217.712 259.36L216.645 264.318Z" fill="#465EB4"/>
<path d="M277.816 273.296L273.441 275.406L273.873 270.701L276.135 270.351L277.816 273.296" fill="#F7981A"/>
<path d="M231.783 237.654L230.388 241.113L227.975 238.796L229.138 235.914L231.783 237.654" fill="#F7981A"/>
<path d="M26.2246 82.6907L20.9562 80.9319L23.4856 77.2746L26.2246 82.6907Z" fill="#465EB4"/>
<path d="M21.674 124.564L18.0213 122.032L18.5138 118.586L22.0263 118.586L21.674 124.564Z" fill="#F35D50"/>
<path d="M220.693 107.776L222.183 103.3L226.654 106.284L225.163 109.765L220.693 107.776" fill="#F35D50"/>
<path d="M43.3555 227.626L44.8456 223.15L49.3162 226.133L47.8262 229.615L43.3555 227.626Z" fill="#F35D50"/>
<path d="M324.843 276.527L326.333 272.051L330.804 275.035L329.314 278.516L324.843 276.527" fill="#F35D50"/>
<path d="M292.941 71.836L294.214 64.8268L299.305 67.3757L292.941 71.836Z" fill="#F7981A"/>
<path d="M252.65 32.3516L254.637 28.3736H258.114L258.611 31.855L252.65 32.3516" fill="#F35D50"/>
<path d="M312.59 155.848L314.577 151.87H318.055L318.551 155.351L312.59 155.848" fill="#F35D50"/>
<path d="M228.495 276.486C228.239 276.75 228.019 277.039 227.838 277.35L227.561 277.206C227.521 277.03 227.354 276.907 227.171 276.93C226.974 276.953 226.834 277.131 226.857 277.327C226.88 277.524 227.058 277.665 227.254 277.642C227.293 277.637 227.33 277.626 227.363 277.611L227.631 277.749C227.482 278.079 227.374 278.426 227.311 278.786L227.754 278.863C227.89 278.088 228.258 277.375 228.817 276.801L228.495 276.486" fill="#8DAEBF"/>
<path d="M235.668 276.632C235.865 276.609 236.004 276.429 235.981 276.233C235.956 276.036 235.778 275.896 235.581 275.92C235.398 275.943 235.264 276.101 235.267 276.282L235.021 276.498C234.773 276.242 234.492 276.015 234.185 275.821L233.945 276.202C234.618 276.627 235.145 277.227 235.466 277.94L235.876 277.754C235.727 277.425 235.539 277.117 235.317 276.836L235.556 276.628C235.592 276.635 235.63 276.636 235.668 276.632" fill="#8DAEBF"/>
</svg>
